<svg xmlns="http://www.w3.org/2000/svg" viewBox="0 0 120 24">
 <title>otterhttp</title>
 <defs><linearGradient id="a" x2="0" y1="24" gradientUnits="userSpaceOnUse"><stop offset="0" stop-color="#5200ff"/><stop offset="1" stop-color="#9d00ff"/></linearGradient></defs>
 <path fill="url(#a)" d="M8.3338 19.49q-2.5319 0-4.0352-1.5033t-1.5033-4.167v-3.6395q0-2.6637 1.4769-4.167 1.5033-1.5033 4.0615-1.5033t4.0352 1.5033q1.5033 1.5033 1.5033 4.167v3.6395q0 2.6637-1.5033 4.167T8.3337 19.49zm0-1.8726q1.6088 0 2.5319-.923t.923-2.6902V9.9954q0-1.767-.923-2.69-.923-.9232-2.5319-.9232t-2.5319.9231q-.923.9231-.923 2.6901v4.0088q0 1.767.923 2.6901t2.5319.9231m14.373 1.6351q-1.767 0-2.7956-.9758-1.0286-1.0022-1.0286-2.7165V6.6459h-4.1934v-1.899h4.1934V.6592h2.1099V4.747h5.9605v1.8989h-5.9605v8.9143q0 .844.4484 1.3187.4747.4747 1.2659.4747h4.1142v1.8989zm12.924 0q-1.767 0-2.7956-.9758-1.0286-1.0022-1.0286-2.7165V6.6459h-4.1934v-1.899h4.1934V.6592h2.1099V4.747h5.9605v1.8989h-5.9605v8.9143q0 .844.4484 1.3187.4747.4747 1.2658.4747h4.1144v1.8989zm11.473.2637q-2.5319 0-4.0352-1.5033-1.5033-1.5297-1.5033-4.167v-3.6923q0-2.6373 1.5033-4.1407 1.5033-1.5297 4.0352-1.5297t4.0352 1.5033q1.5033 1.477 1.5033 3.9561v2.5846h-9.0462v1.5297q0 1.6615.9495 2.6637.9494.9759 2.5582.9759 1.3715 0 2.268-.5539.8968-.5802 1.0814-1.556h2.0835q-.2374 1.8198-1.7143 2.8748-1.477 1.055-3.7187 1.055zm-3.5077-8.6506h7.0154v-.923q0-1.767-.923-2.7428-.9232-.9759-2.5847-.9759t-2.5846.9759q-.923.9758-.923 2.7428zm11.604 8.3868V4.7464H57.31v2.6901q.2374-1.3715 1.2395-2.1626 1.0286-.7912 2.6637-.7912 2.2946 0 3.5077 1.3715 1.2132 1.3451 1.2132 3.8241v1.266h-2.0835v-1.266q0-3.3759-3.2439-3.3759-1.6088 0-2.4528.9495t-.844 2.69v9.31zm12.395 0V-.0006h2.0835v7.411h.0264q.211-1.3978 1.2395-2.1626t2.6637-.7648q2.1626 0 3.455 1.3715 1.2924 1.3451 1.2924 3.6659v9.7319h-2.0835v-9.389q0-1.7406-.8703-2.6637-.8703-.9495-2.3737-.9495-1.556 0-2.4528.9759t-.8967 2.7164v9.3099zm19.727 0q-1.767 0-2.7956-.9758-1.0286-1.0022-1.0286-2.7165V6.6458h-4.1934V4.747h4.1934V.659h2.1099v4.088h5.9605v1.8988h-5.9605v8.9143q0 .844.4484 1.3187.4747.4747 1.2659.4747h4.1143v1.899zm12.924 0q-1.767 0-2.7956-.9758-1.0286-1.0022-1.0286-2.7165V6.6458h-4.1934V4.747h4.1934V.659h2.1099v4.088h5.9605v1.8988h-5.9605v8.9143q0 .844.4484 1.3187.4747.4747 1.266.4747h4.1143v1.899zm6.1187 4.7472V4.7466h2.0835V7.384q.2637-1.345 1.3186-2.1099 1.0549-.7912 2.6637-.7912 2.1626 0 3.455 1.4506 1.3187 1.4242 1.3187 3.9033v4.299q0 2.479-1.2924 3.9296t-3.4813 1.4506q-1.6088 0-2.6901-.7912-1.0549-.8176-1.2924-2.1626h-.0264l.0264 3.0857v4.3517zm5.4066-6.3033q1.5824 0 2.4528-.844.8967-.8702.8967-2.7164v-4.299q0-1.8197-.8967-2.6636-.8703-.8704-2.4528-.8704-1.5297 0-2.4264.9759-.8967.9494-.8967 2.6637v4.1143q0 1.7142.8967 2.69.8967.9495 2.4264.9495z"/>
</svg>